<?xml version="1.0" encoding="UTF-8"?>
<svg width="256px" height="256px" viewBox="0 0 256 256" version="1.1" xmlns="http://www.w3.org/2000/svg" xmlns:xlink="http://www.w3.org/1999/xlink">
    <!-- Generator: Sketch 48.2 (47327) - http://www.bohemiancoding.com/sketch -->
    <title>30something</title>
    <desc>Created with Sketch.</desc>
    <defs>
        <linearGradient x1="-0.00511928849%" y1="50.0001939%" x2="99.9801143%" y2="50.0001939%" id="linearGradient-1">
            <stop stop-color="#A7D39C" offset="0%"></stop>
            <stop stop-color="#059CA1" offset="100%"></stop>
        </linearGradient>
    </defs>
    <g id="30-something" stroke="none" stroke-width="1" fill="none" fill-rule="evenodd">
        <g id="30something">
            <circle id="Oval-2" fill="url(#linearGradient-1)" cx="128" cy="128" r="128"></circle>
            <path d="M72.6,90 C77.866693,90 82.366648,90.899991 86.1,92.7 C89.833352,94.500009 92.6499905,96.933318 94.55,100 C96.4500095,103.066682 97.4,106.533314 97.4,110.4 C97.4,115.06669 96.300011,118.716653 94.1,121.35 C91.899989,123.983346 89.433347,125.766662 86.7,126.7 L86.7,127.1 C94.70004,130.100015 98.7,135.666626 98.7,143.8 C98.7,148.066688 97.70001,151.833317 95.7,155.1 C93.69999,158.366683 90.8500185,160.899991 87.15,162.7 C83.4499815,164.500009 79.066692,165.4 74,165.4 C65.33329,165.4 58.533358,163.333354 53.6,159.2 C48.666642,155.066646 46.133334,148.600044 46,139.8 L67.6,139.8 C67.466666,142.200012 67.8166625,144.016661 68.65,145.25 C69.4833375,146.483339 70.933323,147.1 73,147.1 C74.200006,147.1 75.199996,146.650005 76,145.75 C76.800004,144.849995 77.2,143.666674 77.2,142.2 C77.2,140.333324 76.5833395,138.916672 75.35,137.95 C74.1166605,136.983328 72.033348,136.5 69.1,136.5 L65.4,136.5 L65.4,118.6 L69,118.6 C73.533356,118.866668 75.8,117.066686 75.8,113.2 C75.8,111.533325 75.4500035,110.300004 74.75,109.5 C74.0499965,108.699996 73.166672,108.3 72.1,108.3 C69.633321,108.3 68.4,110.366646 68.4,114.5 L46.8,114.5 C47.000001,106.566627 49.3166445,100.500021 53.75,96.3 C58.1833555,92.099979 64.466626,90 72.6,90 Z M107.166667,128.4 C107.166667,117.466612 109.633309,108.766699 114.566667,102.3 C119.500025,95.833301 127.033283,92.6 137.166667,92.6 C147.300051,92.6 154.833309,95.8499675 159.766667,102.35 C164.700025,108.850033 167.166667,117.533279 167.166667,128.4 C167.166667,139.333388 164.700025,148.049967 159.766667,154.55 C154.833309,161.050032 147.300051,164.3 137.166667,164.3 C127.033283,164.3 119.500025,161.050032 114.566667,154.55 C109.633309,148.049967 107.166667,139.333388 107.166667,128.4 Z M145.266667,128.4 C145.266667,123.666643 144.733339,120.016679 143.666667,117.45 C142.599995,114.883321 140.43335,113.6 137.166667,113.6 C133.833317,113.6 131.633339,114.883321 130.566667,117.45 C129.499995,120.016679 128.966667,123.666643 128.966667,128.4 C128.966667,133.133357 129.499995,136.799987 130.566667,139.4 C131.633339,142.000013 133.833317,143.3 137.166667,143.3 C140.43335,143.3 142.599995,142.000013 143.666667,139.4 C144.733339,136.799987 145.266667,133.133357 145.266667,128.4 Z M192.757692,126.997692 C197.770538,126.997692 201.769857,128.207295 204.755769,130.626538 C207.741682,133.045781 209.626919,136.238698 210.411538,140.205384 L196.876923,140.205384 C196.310254,138.113066 194.828217,137.066922 192.430769,137.066922 C191.07948,137.066922 190.403846,137.589994 190.403846,138.636153 C190.403846,139.377183 190.894226,139.943844 191.875,140.336153 C192.855774,140.728463 194.414092,141.142561 196.55,141.578461 C199.339758,142.10154 201.726272,142.722688 203.709615,143.441922 C205.692959,144.161157 207.403839,145.327171 208.842308,146.939999 C210.280776,148.552828 211,150.754088 211,153.543846 C211,155.723344 210.38975,157.663068 209.169231,159.363076 C207.948712,161.063085 206.16155,162.392559 203.807692,163.351538 C201.453834,164.310517 198.685913,164.789999 195.503846,164.789999 C190.185871,164.789999 185.957708,163.656677 182.819231,161.389999 C179.680754,159.123321 177.741029,155.854123 177,151.582307 L190.926923,151.582307 C191.188463,153.718215 192.692294,154.786153 195.438462,154.786153 C196.92052,154.786153 197.661538,154.263082 197.661538,153.216922 C197.661538,152.388713 197.160261,151.778463 196.157692,151.386153 C195.155123,150.993844 193.542319,150.60154 191.319231,150.20923 C188.485883,149.642561 186.142958,149.03231 184.290385,148.378461 C182.437811,147.724612 180.81411,146.613084 179.419231,145.043846 C178.024352,143.474607 177.326923,141.316936 177.326923,138.570769 C177.326923,136.347681 177.915379,134.364367 179.092308,132.620769 C180.269237,130.87717 182.012809,129.504107 184.323077,128.501538 C186.633345,127.498969 189.444855,126.997692 192.757692,126.997692 Z" id="30s" stroke="#FFFFFF" stroke-width="3" fill="#533692"></path>
        </g>
    </g>
</svg>