<?xml version="1.0" encoding="UTF-8"?>
<svg width="256px" height="256px" viewBox="0 0 256 256" version="1.1" xmlns="http://www.w3.org/2000/svg" xmlns:xlink="http://www.w3.org/1999/xlink">
    <!-- Generator: Sketch 48.2 (47327) - http://www.bohemiancoding.com/sketch -->
    <title>40plus</title>
    <desc>Created with Sketch.</desc>
    <defs>
        <linearGradient x1="-0.00511928849%" y1="50.0001939%" x2="99.9801143%" y2="50.0001939%" id="linearGradient-1">
            <stop stop-color="#A7D39C" offset="0%"></stop>
            <stop stop-color="#059CA1" offset="100%"></stop>
        </linearGradient>
    </defs>
    <g id="40+" stroke="none" stroke-width="1" fill="none" fill-rule="evenodd">
        <g id="40plus">
            <circle id="Oval-2" fill="url(#linearGradient-1)" cx="128" cy="128" r="128"></circle>
            <path d="M32,153.1 L32,134.6 L61.8,92.1 L85.7,92.1 L85.7,133.9 L92.9,133.9 L92.9,153.1 L85.7,153.1 L85.7,164.1 L63.3,164.1 L63.3,153.1 L32,153.1 Z M65.1,117.4 L54.3,133.9 L65.1,133.9 L65.1,117.4 Z M100.566667,127.8 C100.566667,116.866612 103.033309,108.166699 107.966667,101.7 C112.900025,95.233301 120.433283,92 130.566667,92 C140.700051,92 148.233309,95.2499675 153.166667,101.75 C158.100025,108.250033 160.566667,116.933279 160.566667,127.8 C160.566667,138.733388 158.100025,147.449968 153.166667,153.95 C148.233309,160.450033 140.700051,163.7 130.566667,163.7 C120.433283,163.7 112.900025,160.450033 107.966667,153.95 C103.033309,147.449968 100.566667,138.733388 100.566667,127.8 Z M138.666667,127.8 C138.666667,123.066643 138.133339,119.41668 137.066667,116.85 C135.999995,114.283321 133.83335,113 130.566667,113 C127.233317,113 125.033339,114.283321 123.966667,116.85 C122.899995,119.41668 122.366667,123.066643 122.366667,127.8 C122.366667,132.533357 122.899995,136.199987 123.966667,138.8 C125.033339,141.400013 127.233317,142.7 130.566667,142.7 C133.83335,142.7 135.999995,141.400013 137.066667,138.8 C138.133339,136.199987 138.666667,132.533357 138.666667,127.8 Z M224.833333,140.3 L209.933333,140.3 L209.933333,155.6 L188.633333,155.6 L188.633333,140.3 L173.733333,140.3 L173.733333,120 L188.633333,120 L188.633333,104.6 L209.933333,104.6 L209.933333,120 L224.833333,120 L224.833333,140.3 Z" id="40+" stroke="#FFFFFF" stroke-width="3" fill="#533692"></path>
        </g>
    </g>
</svg>