<?xml version="1.0" encoding="UTF-8"?>
<svg width="256px" height="256px" viewBox="0 0 256 256" version="1.1" xmlns="http://www.w3.org/2000/svg" xmlns:xlink="http://www.w3.org/1999/xlink">
    <!-- Generator: Sketch 48.2 (47327) - http://www.bohemiancoding.com/sketch -->
    <title>Cycle Cysters</title>
    <desc>Created with Sketch.</desc>
    <defs>
        <linearGradient x1="-0.00511928849%" y1="50.0001939%" x2="99.9801143%" y2="50.0001939%" id="linearGradient-1">
            <stop stop-color="#A7D39C" offset="0%"></stop>
            <stop stop-color="#059CA1" offset="100%"></stop>
        </linearGradient>
    </defs>
    <g id="Cycle-Cysters" stroke="none" stroke-width="1" fill="none" fill-rule="evenodd">
        <g>
            <circle id="Oval-2" fill="url(#linearGradient-1)" cx="128" cy="128" r="128"></circle>
            <path d="M115.263787,122.678718 C116.66305,120.719812 118.224221,118.922823 119.947306,117.287745 C120.127358,116.950852 120.29887,116.604155 120.461842,116.247652 L121.090223,116.247652 C122.959937,114.616018 125.005668,113.160396 127.227422,111.880778 C133.70601,108.149439 141.332588,106.283798 150.107385,106.283798 C157.652069,106.283798 164.39708,107.698405 170.34262,110.527662 C176.28816,113.356919 181.126526,117.354721 184.857865,122.52119 C188.589203,127.687659 191.069891,133.715116 192.300003,140.603741 L163.515534,140.603741 C162.203415,137.733481 160.337774,135.498811 157.918554,133.899666 C155.499335,132.300521 152.731625,131.50096 149.615342,131.50096 C146.928666,131.50096 144.5718,132.090366 142.544722,133.269187 C142.303603,133.626804 142.056753,133.980476 141.804173,134.330203 C140.288122,136.42935 138.589322,138.335572 136.707762,140.048877 C135.38996,142.967169 134.731066,146.473393 134.731066,150.567596 C134.731066,156.390124 136.063667,161.023475 138.728909,164.467788 C141.394151,167.9121 145.022926,169.634231 149.615342,169.634231 C152.731625,169.634231 155.499335,168.83467 157.918554,167.235525 C160.337774,165.63638 162.203415,163.401711 163.515534,160.53145 L192.300003,160.53145 C191.069891,167.420075 188.589203,173.447532 184.857865,178.614001 C181.126526,183.78047 176.28816,187.778273 170.34262,190.607529 C164.39708,193.436786 157.652069,194.851393 150.107385,194.851393 C141.332588,194.851393 133.70601,192.985752 127.227422,189.254413 C120.748834,185.523075 115.766957,180.295179 112.281641,173.570568 C108.796324,166.845958 107.053692,159.178377 107.053692,150.567596 C98.2788959,150.567596 90.6523181,148.701954 84.1737301,144.970616 C77.6951421,141.239277 72.7132647,136.011381 69.2279484,129.286771 C65.742632,122.56216 64,114.894579 64,106.283798 C64,97.6730163 65.742632,90.0054354 69.2279484,83.2808251 C72.7132647,76.5562147 77.6951421,71.3283187 84.1737301,67.59698 C90.6523181,63.8656413 98.2788959,62 107.053692,62 C114.598377,62 121.343388,63.4146072 127.288928,66.243864 C133.234467,69.0731207 138.072834,73.0709236 141.804173,78.2373925 C145.535511,83.4038614 148.016199,89.4313181 149.246311,96.3199433 L120.461842,96.3199433 C119.149723,93.4496828 117.284082,91.2150135 114.864862,89.6158683 C112.445643,88.0167232 109.677933,87.2171626 106.56165,87.2171626 C101.969233,87.2171626 98.3404584,88.9392931 95.6752165,92.3836057 C93.0099746,95.8279183 91.6773736,100.461269 91.6773736,106.283798 C91.6773736,112.106326 93.0099746,116.739677 95.6752165,120.18399 C98.3404584,123.628302 101.969233,125.350433 106.56165,125.350433 C109.677933,125.350433 112.445643,124.550872 114.864862,122.951727 C114.999553,122.862694 115.132528,122.771691 115.263787,122.678718 Z" id="Combined-Shape" stroke="#FFFFFF" stroke-width="3" fill="#533692"></path>
        </g>
    </g>
</svg>