<?xml version="1.0" encoding="UTF-8"?>
<svg width="256px" height="256px" viewBox="0 0 256 256" version="1.1" xmlns="http://www.w3.org/2000/svg" xmlns:xlink="http://www.w3.org/1999/xlink">
    <!-- Generator: Sketch 48.2 (47327) - http://www.bohemiancoding.com/sketch -->
    <title>LGBTQ</title>
    <desc>Created with Sketch.</desc>
    <defs>
        <linearGradient x1="-0.00511928849%" y1="50.0001939%" x2="99.9801143%" y2="50.0001939%" id="linearGradient-1">
            <stop stop-color="#A7D39C" offset="0%"></stop>
            <stop stop-color="#059CA1" offset="100%"></stop>
        </linearGradient>
        <path d="M58.0061521,111.577181 L61.7273691,111.577181 C62.0230221,114.411095 62.4147096,117.23535 62.9019949,120.045057 L58.0061521,111.577181 Z" id="path-2"></path>
        <path d="M41.417815,82.885906 L62.3826669,82.885906 C61.4814343,88.0166822 61.0356531,93.4926615 61.0489241,99.2987211 C61.0753765,103.40183 61.3019584,107.499505 61.7273691,111.577181 L58.0061521,111.577181 L41.417815,82.885906 Z" id="path-3"></path>
    </defs>
    <g id="LGBTQ" stroke="none" stroke-width="1" fill="none" fill-rule="evenodd">
        <g>
            <circle id="Oval-2" fill="url(#linearGradient-1)" cx="128" cy="128" r="128"></circle>
            <g id="LOGO" transform="translate(33.000000, 58.000000)">
                <g id="Group-3" transform="translate(57.950000, 0.950000)">
                    <path d="M123.830716,25.5033557 L40.7113876,25.5033557 C28.7615391,11.1704908 11.1733997,3.42526073 0.158181434,0.199720979 L121.695451,0.199720979 C125.177637,-0.0475463715 128.516199,1.62946284 130.396827,4.57055086 C131.281334,5.94084532 131.762912,7.53214712 131.78663,9.16294355 C131.784504,10.4633842 131.524347,11.7504766 131.021231,12.9496533 C130.851639,13.3576384 130.656547,13.7545497 130.437111,14.1380356 L123.830716,25.5033557 Z" id="Combined-Shape" fill="#E60203"></path>
                    <path d="M40.7113876,25.5033557 L123.830716,25.5033557 L116.680075,37.8049716 C115.778608,38.7848272 108.570765,46.5143637 97.730213,54.1946309 L53.1613658,54.1946309 C52.5007116,48.4120789 50.8973331,42.7582754 48.3984468,37.4625564 C46.3109721,33.0467445 43.6858459,29.0709748 40.7113876,25.5033557 Z" id="Combined-Shape" fill="#FF8B00"></path>
                    <path d="M53.1613658,54.1946309 L97.730213,54.1946309 C86.2867477,62.3020475 70.7952593,70.3545619 54.4007846,70.3545619 L52.7692766,70.3545619 C53.170955,67.6253449 53.4063799,64.8742366 53.4742492,62.116454 C53.5666055,59.4636313 53.4608448,56.8159011 53.1613652,54.1946262 Z" id="Combined-Shape" fill="#FEED04"></path>
                </g>
                <g id="Group-2" transform="translate(0.000000, 0.950000)">
                    <g id="Combined-Shape">
                        <use fill="#004DFF" fill-rule="evenodd" xlink:href="#path-2"></use>
                        <path stroke="#979797" stroke-width="1" d="M58.8727899,112.077181 L61.972187,117.437915 C61.7025561,115.656117 61.470984,113.868799 61.2776248,112.077181 L58.8727899,112.077181 Z"></path>
                    </g>
                    <g id="Combined-Shape">
                        <use fill="#008029" fill-rule="evenodd" xlink:href="#path-3"></use>
                        <path stroke="#979797" stroke-width="1" d="M42.2844528,83.385906 L58.2946233,111.077181 L61.1737135,111.077181 C60.7828218,107.16441 60.5742907,103.23499 60.5489254,99.299864 C60.5361004,93.6889314 60.9500458,88.379389 61.7894086,83.385906 L42.2844528,83.385906 Z"></path>
                    </g>
                    <path d="M24.8294779,54.1946309 L74.9037913,54.1946309 C74.4267865,54.7753141 73.964528,55.3680578 73.5168674,55.9731217 C67.9386513,63.4287519 64.2171289,72.4421934 62.3826669,82.885906 L41.417815,82.885906 L24.8294779,54.1946309 Z" id="Combined-Shape" fill="#FEED04"></path>
                    <path d="M92.6457914,25.5033557 L8.24114082,25.5033557 L1.67009232,14.1380356 C0.782250665,12.6665186 0.30898344,10.9822441 0.300431345,9.26365392 C0.33151883,7.60532136 0.804319366,5.98528423 1.67009232,4.57055086 C3.55425775,1.62280815 6.90243997,-0.055149221 10.39161,0.199720979 L41.1485558,0.199720979 C51.2663001,1.87207541 76.5328094,8.65418741 92.6457914,25.5033557 Z" id="Combined-Shape" fill="#E60203"></path>
                    <path d="M8.24114082,25.5033557 L92.6457914,25.5033557 C95.9395128,28.947564 98.8507528,32.8124256 101.171934,37.1402832 C89.7287538,41.1790527 81.0801266,46.6758497 74.9037913,54.1946309 L24.8294779,54.1946309 L8.24114082,25.5033557 Z" id="Combined-Shape" fill="#FF8B00"></path>
                </g>
                <g id="Group" transform="translate(64.600000, 55.100000)">
                    <path d="M98.6684969,0.0446308725 L100.561464,0.0446308725 L83.994157,28.735906 L2.36884966,28.735906 C3.82126682,20.9820619 6.52841865,13.2970785 11.1303274,6.47577444 C20.1201757,14.4292855 31.4065339,19.3176894 43.3576445,20.4342312 C58.7260464,21.6830397 75.1015519,16.4863848 91.920183,5.0054031 C94.1969629,3.44829504 96.4482416,1.78918216 98.6684969,0.0446308725 Z" id="Combined-Shape" fill="#FEED04"></path>
                    <path d="M1.64313505,57.4271812 L67.4268499,57.4271812 L50.8595428,86.1184564 L9.99964943,86.1184564 L5.95381461,79.1080904 C5.57493719,77.9274026 2.92967474,69.1998069 1.64313505,57.4271812 Z" id="Combined-Shape" fill="#004DFF"></path>
                    <path d="M10.0018175,86.1184564 L50.8617109,86.1184564 L39.1501193,106.4006 C37.351035,109.516339 34.0264536,111.435675 30.4286016,111.435675 C26.8307496,111.435675 23.5061682,109.516339 21.7070839,106.4006 L10.0018175,86.1184564 Z" id="Combined-Shape" fill="#760689"></path>
                    <path d="M2.36884966,28.735906 L83.994157,28.735906 L67.4268499,57.4271812 L1.64313505,57.4271812 C0.710401538,48.8920986 0.491834799,38.7564987 2.36884966,28.735906 Z" id="Combined-Shape" fill="#008029"></path>
                </g>
                <g id="Group-4" fill-rule="nonzero" stroke="#FFFFFF" stroke-width="3">
                    <path d="M187.511186,4.38371701 C185.635911,1.45099977 182.306851,-0.221236413 178.834576,0.0253271764 L57.6432203,0.0253271764 C71.3611017,4.04227633 95.3021186,15.0888865 105.746186,37.1821068 C109.367502,44.8565128 111.102794,53.2850776 110.807542,61.7658357 C110.739866,64.5157692 110.505111,67.2590474 110.104576,69.9804967 L111.731441,69.9804967 C143.565763,69.9804967 171.985678,39.5320221 173.833475,37.5235475 L187.551356,13.9239712 C187.770167,13.5415768 187.964704,13.1457951 188.133814,12.7389712 C188.635498,11.5432076 188.894914,10.2597785 188.897034,8.96303904 C188.873384,7.33688411 188.393176,5.75011139 187.511186,4.38371701 Z" id="Shape"></path>
                    <path d="M107.352966,74.1982933 C95.4358702,73.0849294 84.1816347,68.2104386 75.2173729,60.2795645 C56.5184746,87.9965136 69.1919492,130.013802 70.0555932,132.705158 L85.7618644,159.919988 C87.5558283,163.02686 90.8709473,164.940733 94.4585593,164.940733 C98.0461713,164.940733 101.36129,163.02686 103.155254,159.919988 L166.060678,50.9803272 C162.706525,53.7921916 159.272034,56.4232933 155.777288,58.813378 C139.006525,70.2616831 122.677627,75.4435475 107.352966,74.1982933 Z" id="Shape"></path>
                    <path d="M73.0080508,55.6399882 C79.234322,47.2244797 88.2925424,41.199056 100.584407,36.8607509 C86.9468644,11.4334628 52.8831356,2.03380175 40.7318644,0.0253271764 L10.0624576,0.0253271764 C6.58321829,-0.228817624 3.24456551,1.44436402 1.36576271,4.38371701 C0.502453878,5.79442382 0.0309990052,7.40985008 0,9.06346277 C0.00852775444,10.7771615 0.480447988,12.4566424 1.36576271,13.9239712 L62.4233898,119.529564 C61.2383395,112.696516 60.6203019,105.777181 60.5755932,98.8422763 C60.5354237,81.2681238 64.7130508,66.7267679 73.0080508,55.6399882 Z" id="Shape"></path>
                </g>
            </g>
        </g>
    </g>
</svg>