<?xml version="1.0" encoding="UTF-8"?>
<svg width="256px" height="256px" viewBox="0 0 256 256" version="1.1" xmlns="http://www.w3.org/2000/svg" xmlns:xlink="http://www.w3.org/1999/xlink">
    <!-- Generator: Sketch 48.2 (47327) - http://www.bohemiancoding.com/sketch -->
    <title>Postpartum</title>
    <desc>Created with Sketch.</desc>
    <defs>
        <linearGradient x1="-0.00511928849%" y1="50.0001939%" x2="99.9801143%" y2="50.0001939%" id="linearGradient-1">
            <stop stop-color="#A7D39C" offset="0%"></stop>
            <stop stop-color="#059CA1" offset="100%"></stop>
        </linearGradient>
        <path d="M99.4888707,167.990931 C84.5745993,167.685087 70.8562662,159.662785 63.2860008,146.760078 C55.7620003,133.936226 52,121.849533 52,110.500001 C52,99.1504694 55.7620002,87.0637768 63.2860005,74.2399235 C71.0057479,61.0824403 85.1187598,53 100.373722,53 L127.61328,53 L127.61328,109 L205,109 L205,125 C205,148.748244 185.748244,168 162,168 L160.52252,168 L169.279799,176.757279 C169.368889,176.739742 169.45835,176.723049 169.548177,176.70721 C176.89075,175.412516 183.892638,180.315291 185.187332,187.657864 C186.482025,195.000438 181.57925,202.002326 174.236677,203.297019 C166.894104,204.591713 159.892216,199.688938 158.597522,192.346365 C158.296264,190.637842 158.330557,188.947765 158.65306,187.343744 L139.309317,168 L120.692998,168 L101.349255,187.343744 C101.671758,188.947765 101.706051,190.637842 101.404793,192.346365 C100.110099,199.688938 93.1082107,204.591713 85.7656376,203.297019 C78.4230645,202.002326 73.5202896,195.000438 74.8149833,187.657864 C76.1096771,180.315291 83.1115653,175.412516 90.4541384,176.70721 C90.5439649,176.723049 90.6334263,176.739742 90.7225157,176.757279 L99.4888641,167.990931 Z" id="path-2"></path>
    </defs>
    <g id="Postpartum" stroke="none" stroke-width="1" fill="none" fill-rule="evenodd">
        <g>
            <circle id="Oval-2" fill="url(#linearGradient-1)" cx="128" cy="128" r="128"></circle>
            <g id="Combined-Shape">
                <use fill="#533692" fill-rule="evenodd" xlink:href="#path-2"></use>
                <path stroke="#FFFFFF" stroke-width="3" d="M203.5,110.5 L126.11328,110.5 L126.11328,54.5 L100.373722,54.5 C85.6509097,54.5 72.0302121,62.3004947 64.5797582,74.998996 C57.1827318,87.6064359 53.5,99.438452 53.5,110.500001 C53.5,121.561551 57.1827319,133.393567 64.5797585,146.001006 C71.8788348,158.441499 85.1117094,166.195786 99.5196244,166.491246 L103.037731,166.563391 L100.549524,169.051591 L91.2175931,178.383522 L90.4327993,178.229035 C90.3533356,178.213392 90.2736223,178.19852 90.1936661,178.184422 C83.6669345,177.033583 77.4430339,181.391605 76.292195,187.918337 C75.1413561,194.445068 79.4993782,200.668969 86.0261099,201.819808 C92.5528415,202.970647 98.7767422,198.612625 99.927581,192.085893 C100.190839,190.592881 100.170691,189.091757 99.878684,187.639416 L99.7202513,186.851427 L120.071678,166.5 L139.930637,166.5 L160.282064,186.851427 L160.123631,187.639416 C159.831624,189.091757 159.811476,190.592881 160.074734,192.085893 C161.225573,198.612625 167.449473,202.970647 173.976205,201.819808 C180.502937,200.668969 184.860959,194.445068 183.71012,187.918337 C182.559281,181.391605 176.335381,177.033583 169.808649,178.184422 C169.728693,178.19852 169.648979,178.213392 169.569516,178.229035 L168.784722,178.383522 L156.9012,166.5 L162,166.5 C184.919817,166.5 203.5,147.919817 203.5,125 L203.5,110.5 Z"></path>
            </g>
        </g>
    </g>
</svg>