<?xml version="1.0" encoding="UTF-8"?>
<svg width="256px" height="256px" viewBox="0 0 256 256" version="1.1" xmlns="http://www.w3.org/2000/svg" xmlns:xlink="http://www.w3.org/1999/xlink">
    <!-- Generator: Sketch 48.2 (47327) - http://www.bohemiancoding.com/sketch -->
    <title>under 30</title>
    <desc>Created with Sketch.</desc>
    <defs>
        <linearGradient x1="-0.00511928849%" y1="50.0001939%" x2="99.9801143%" y2="50.0001939%" id="linearGradient-1">
            <stop stop-color="#A7D39C" offset="0%"></stop>
            <stop stop-color="#059CA1" offset="100%"></stop>
        </linearGradient>
    </defs>
    <g id="&lt;30" stroke="none" stroke-width="1" fill="none" fill-rule="evenodd">
        <g id="under-30">
            <circle id="Oval-2" fill="url(#linearGradient-1)" cx="128" cy="128" r="128"></circle>
            <path d="M68.2,151 L44,128.1 L68.2,105.1 L79.6,105.1 L55.4,128.1 L79.6,151 L68.2,151 Z M117.366667,90 C122.63336,90 127.133315,90.899991 130.866667,92.7 C134.600019,94.500009 137.416658,96.933318 139.316667,100 C141.216677,103.066682 142.166667,106.533314 142.166667,110.4 C142.166667,115.06669 141.066678,118.716653 138.866667,121.35 C136.666656,123.983346 134.200014,125.766662 131.466667,126.7 L131.466667,127.1 C139.466707,130.100015 143.466667,135.666626 143.466667,143.8 C143.466667,148.066688 142.466677,151.833317 140.466667,155.1 C138.466657,158.366683 135.616686,160.899991 131.916667,162.7 C128.216648,164.500009 123.833359,165.4 118.766667,165.4 C110.099957,165.4 103.300025,163.333354 98.366667,159.2 C93.433309,155.066646 90.900001,148.600044 90.766667,139.8 L112.366667,139.8 C112.233333,142.200012 112.58333,144.016661 113.416667,145.25 C114.250005,146.483339 115.69999,147.1 117.766667,147.1 C118.966673,147.1 119.966663,146.650005 120.766667,145.75 C121.566671,144.849995 121.966667,143.666674 121.966667,142.2 C121.966667,140.333324 121.350007,138.916672 120.116667,137.95 C118.883328,136.983328 116.800015,136.5 113.866667,136.5 L110.166667,136.5 L110.166667,118.6 L113.766667,118.6 C118.300023,118.866668 120.566667,117.066686 120.566667,113.2 C120.566667,111.533325 120.216671,110.300004 119.516667,109.5 C118.816664,108.699996 117.933339,108.3 116.866667,108.3 C114.399988,108.3 113.166667,110.366646 113.166667,114.5 L91.566667,114.5 C91.766668,106.566627 94.0833115,100.500021 98.516667,96.3 C102.950023,92.099979 109.233293,90 117.366667,90 Z M151.933334,128.4 C151.933334,117.466612 154.399976,108.766699 159.333334,102.3 C164.266692,95.833301 171.79995,92.6 181.933334,92.6 C192.066718,92.6 199.599976,95.8499675 204.533334,102.35 C209.466692,108.850033 211.933334,117.533279 211.933334,128.4 C211.933334,139.333388 209.466692,148.049967 204.533334,154.55 C199.599976,161.050032 192.066718,164.3 181.933334,164.3 C171.79995,164.3 164.266692,161.050032 159.333334,154.55 C154.399976,148.049967 151.933334,139.333388 151.933334,128.4 Z M190.033334,128.4 C190.033334,123.666643 189.500006,120.016679 188.433334,117.45 C187.366662,114.883321 185.200017,113.6 181.933334,113.6 C178.599984,113.6 176.400006,114.883321 175.333334,117.45 C174.266662,120.016679 173.733334,123.666643 173.733334,128.4 C173.733334,133.133357 174.266662,136.799987 175.333334,139.4 C176.400006,142.000013 178.599984,143.3 181.933334,143.3 C185.200017,143.3 187.366662,142.000013 188.433334,139.4 C189.500006,136.799987 190.033334,133.133357 190.033334,128.4 Z" id="&lt;30" stroke="#FFFFFF" stroke-width="3" fill="#533692"></path>
        </g>
    </g>
</svg>